<svg width="1024" height="1024" viewBox="0 0 1024 1024" fill="none" xmlns="http://www.w3.org/2000/svg">
<g clip-path="url(#clip0_4549_308)">
<path d="M771.03 0H252.97C113.259 0 0 113.259 0 252.97V771.03C0 910.742 113.259 1024 252.97 1024H771.03C910.742 1024 1024 910.742 1024 771.03V252.97C1024 113.259 910.742 0 771.03 0Z" fill="#479AED"/>
<path d="M531.25 404.8C563.53 404.8 593.82 419.14 614.33 444.13C616.07 446.27 617.74 448.47 619.27 450.64L643.3 433.75C641.34 430.99 639.25 428.2 637.01 425.49C610.9 393.65 572.34 375.38 531.25 375.38C455.78 375.38 394.41 436.87 394.41 512.45C394.41 538.99 402.01 564.73 416.34 586.9C441.71 626.1 484.66 649.5 531.25 649.5C560.24 649.5 587.78 640.47 610.55 624.21C617.79 619.05 624.55 613.16 630.72 606.59C636.52 600.41 641.81 593.66 646.49 586.34L645.63 585.79L645.57 585.75L621.8 570.47C621.64 570.73 621.49 570.98 621.31 571.21C616.53 578.55 610.97 585.18 604.76 591.03C597.96 597.43 590.4 602.88 582.25 607.26C566.86 615.58 549.4 620.11 531.25 620.11C494.65 620.11 460.9 601.73 440.98 570.91C429.72 553.51 423.77 533.3 423.77 512.44C423.77 453.09 471.99 404.78 531.26 404.78L531.25 404.8Z" fill="#F9FAFB"/>
<path d="M287.34 515.81C287.34 383.31 390.65 273.18 522.54 265.1L520.75 235.76C373.41 244.79 258 367.81 258 515.81C258 557.19 266.79 597.06 284.13 634.28L310.72 621.86C295.21 588.55 287.34 552.88 287.34 515.81Z" fill="#F9FAFB"/>
<path d="M522.77 747.27V765.9C448.56 761.56 379.58 724.62 334.73 664.86L349.72 653.89C346.54 649.67 343.43 645.22 340.22 640.27C337.76 636.47 335.59 632.89 333.56 629.31L294.47 657.89L302.12 669.58C303.27 671.34 304.53 673.17 306.19 675.55C359.19 750.78 445.62 795.71 537.41 795.71H552.08V747.28C546.89 747.58 542.08 747.75 537.41 747.75C532.74 747.75 527.76 747.58 522.75 747.26L522.77 747.27Z" fill="#F9FAFB"/>
<path d="M654.05 590.87L653.89 591.13C649.01 598.76 643.37 606 637.13 612.65C631.49 618.66 625.29 624.16 618.7 629.12L649.6 647.62C618.55 673.56 579.17 688.17 537.44 688.17C477.72 688.17 422.65 658.15 390.14 607.86C371.75 579.49 362.03 546.5 362.03 512.47C362.03 415.58 440.73 336.77 537.44 336.77C590.13 336.77 639.56 360.17 673.01 400.97C675.89 404.48 678.59 408.05 681.08 411.62L722.73 382.89C719.54 378.3 715.87 373.28 712.2 368.77C709.6 365.6 706.91 362.51 704.17 359.51C661.34 312.65 601.25 286 537.44 286C412.78 286 311.35 387.6 311.35 512.47C311.35 551.86 321.47 590.18 340.71 624.1C342.88 627.96 345.2 631.75 347.6 635.48C350.54 640.01 353.6 644.43 356.83 648.7C396.55 701.59 456.85 734.24 522.78 738.45C527.64 738.76 532.53 738.94 537.45 738.94C542.37 738.94 547.26 738.76 552.12 738.47C606.43 734.98 656.84 712.26 695.13 674.85C701.3 668.82 707.16 662.41 712.66 655.64C718.01 649.07 723.02 642.14 727.66 634.91L684.1 608.84L654.06 590.88L654.05 590.87Z" fill="#F9FAFB"/>
<path d="M756.44 340.16L753.18 335.46C751.43 333.33 749.65 331.22 747.83 329.17C696.69 270.65 623.86 236.15 545.95 234L545.13 263.38C613.72 265.28 677.9 295.21 723.54 346.05L711.44 354.46C714.12 357.42 716.62 360.29 718.99 363.19C722.31 367.25 725.92 372.09 729.71 377.54L765.22 352.86L756.43 340.16H756.44Z" fill="#F9FAFB"/>
</g>
<defs>
<clipPath id="clip0_4549_308">
<rect width="1024" height="1024" fill="white"/>
</clipPath>
</defs>
</svg>
